# xmcd
#
# Track frame offsets:
#	150
#	12112
#	27510
#	44502
#	69600
#	82155
#	94732
#	106817
#	130595
#	147602
#
# Disc length: 2117
#
# Revision: 1
# Processed by: cddbd v1.5.1PL0 Copyright (c) Steve Scherf et al.
# Submitted via: CDex 1.50beta9
# Normalized: r0:DSETVAR1,TDELIM( - )
#
DISCID=8808430a
DTITLE=Various Artist - Real Blue
DYEAR=1900
DGENRE=Blues
TTITLE0=Robert Johnson - Crossroad Blues
TTITLE1=Big Joe Williams - Nobody knows when you're down and out
TTITLE2=Mississippi John hurt - Nobody's business but mine
TTITLE3=Howlin Wolf - I didn't mean to hurt your feelings
TTITLE4=Lightnin' Hopkins - My baby's gone
TTITLE5=Muddy Waters - Baby please don't go
TTITLE6=John Lee Hooker - I'm in the mood
TTITLE7=Memphis Slim - Rock me woman
TTITLE8=Bo Diddley - Mona
TTITLE9=Canned Heat - Spoonful
EXTD=
EXTT0=
EXTT1=
EXTT2=
EXTT3=
EXTT4=
EXTT5=
EXTT6=
EXTT7=
EXTT8=
EXTT9=
PLAYORDER=
